<mxfile host="app.diagrams.net" agent="Mozilla/5.0 (X11; Ubuntu; Linux x86_64; rv:137.0) Gecko/20100101 Firefox/137.0" version="26.2.10">
  <diagram name="Page-1" id="ZMMyq_TRNcu6w0FOiBL4">
    <mxGraphModel dx="469" dy="336" grid="1" gridSize="10" guides="1" tooltips="1" connect="1" arrows="1" fold="1" page="1" pageScale="1" pageWidth="827" pageHeight="1169" math="0" shadow="0">
      <root>
        <mxCell id="0" />
        <mxCell id="1" parent="0" />
        <mxCell id="IJlLa6e08x084-JysXPc-107" value="" style="rounded=0;whiteSpace=wrap;html=1;fillColor=#0050ef;fontColor=#ffffff;strokeColor=none;" parent="1" vertex="1">
          <mxGeometry x="237.21" y="875" width="10" height="20" as="geometry" />
        </mxCell>
        <mxCell id="IJlLa6e08x084-JysXPc-80" value="" style="rounded=0;whiteSpace=wrap;html=1;strokeColor=none;fillColor=#DAE8FC;gradientColor=none;" parent="1" vertex="1">
          <mxGeometry x="130" y="560" width="110" height="120" as="geometry" />
        </mxCell>
        <mxCell id="IJlLa6e08x084-JysXPc-11" value="" style="rounded=0;whiteSpace=wrap;html=1;fillColor=#eeeeee;strokeColor=#36393d;direction=east;" parent="1" vertex="1">
          <mxGeometry x="90" y="320" width="150" height="120" as="geometry" />
        </mxCell>
        <mxCell id="sME1Grcz2dCEb6zfO-W--1" value="Дом &quot;Туристов&quot;&lt;div&gt;Карта локации&lt;/div&gt;&lt;div&gt;Легенда&lt;/div&gt;" style="text;strokeColor=#d79b00;fillColor=#ffe6cc;align=center;verticalAlign=middle;spacingLeft=4;spacingRight=4;overflow=hidden;points=[[0,0.5],[1,0.5]];portConstraint=eastwest;rotatable=0;whiteSpace=wrap;html=1;fontStyle=1;fontSize=18;gradientColor=#FF3333;glass=0;rounded=1;shadow=0;fillStyle=auto;" parent="1" vertex="1">
          <mxGeometry width="160" height="70" as="geometry" />
        </mxCell>
        <mxCell id="sME1Grcz2dCEb6zfO-W--3" value="Этаж 1" style="text;html=1;align=center;verticalAlign=middle;whiteSpace=wrap;rounded=1;labelBorderColor=none;fontStyle=1;fontSize=18;fillColor=#f5f5f5;fontColor=#333333;strokeColor=#666666;shadow=0;gradientColor=none;" parent="1" vertex="1">
          <mxGeometry y="160" width="120" height="40" as="geometry" />
        </mxCell>
        <mxCell id="sME1Grcz2dCEb6zfO-W--4" value="" style="endArrow=none;html=1;rounded=0;exitX=0;exitY=0;exitDx=0;exitDy=0;" parent="1" source="sME1Grcz2dCEb6zfO-W--3" edge="1">
          <mxGeometry width="50" height="50" relative="1" as="geometry">
            <mxPoint x="390" y="210" as="sourcePoint" />
            <mxPoint x="820" y="160" as="targetPoint" />
          </mxGeometry>
        </mxCell>
        <mxCell id="IJlLa6e08x084-JysXPc-1" value="" style="rounded=0;whiteSpace=wrap;html=1;strokeWidth=2;fillColor=none;" parent="1" vertex="1">
          <mxGeometry x="90" y="240" width="230" height="200" as="geometry" />
        </mxCell>
        <mxCell id="IJlLa6e08x084-JysXPc-2" value="Вход" style="text;html=1;align=right;verticalAlign=middle;whiteSpace=wrap;rounded=0;fillColor=none;labelBackgroundColor=none;labelBorderColor=none;textShadow=1;" parent="1" vertex="1">
          <mxGeometry y="270" width="60" height="30" as="geometry" />
        </mxCell>
        <mxCell id="IJlLa6e08x084-JysXPc-3" value="" style="endArrow=classic;html=1;rounded=0;exitX=1;exitY=0.5;exitDx=0;exitDy=0;entryX=0.002;entryY=0.217;entryDx=0;entryDy=0;entryPerimeter=0;" parent="1" source="IJlLa6e08x084-JysXPc-2" target="IJlLa6e08x084-JysXPc-1" edge="1">
          <mxGeometry width="50" height="50" relative="1" as="geometry">
            <mxPoint x="210" y="350" as="sourcePoint" />
            <mxPoint x="260" y="300" as="targetPoint" />
          </mxGeometry>
        </mxCell>
        <mxCell id="IJlLa6e08x084-JysXPc-4" value="Ресепшен" style="rounded=0;whiteSpace=wrap;html=1;fillColor=none;" parent="1" vertex="1">
          <mxGeometry x="90" y="240" width="70" height="30" as="geometry" />
        </mxCell>
        <mxCell id="IJlLa6e08x084-JysXPc-6" value="" style="ellipse;whiteSpace=wrap;html=1;aspect=fixed;spacingTop=0;spacingBottom=0;spacing=2;spacingRight=0;textShadow=0;fillColor=#000000;strokeColor=none;" parent="1" vertex="1">
          <mxGeometry x="110" y="266" width="10" height="10" as="geometry" />
        </mxCell>
        <mxCell id="IJlLa6e08x084-JysXPc-8" value="" style="rounded=0;whiteSpace=wrap;html=1;strokeColor=none;fillColor=#DAE8FC;gradientColor=none;" parent="1" vertex="1">
          <mxGeometry x="240" y="320" width="40" height="120" as="geometry" />
        </mxCell>
        <mxCell id="IJlLa6e08x084-JysXPc-9" value="" style="rounded=0;whiteSpace=wrap;html=1;strokeColor=none;fillColor=#dae8fc;gradientColor=none;" parent="1" vertex="1">
          <mxGeometry x="160" y="400" width="80" height="40" as="geometry" />
        </mxCell>
        <mxCell id="IJlLa6e08x084-JysXPc-12" value="" style="rounded=0;whiteSpace=wrap;html=1;fillColor=#eeeeee;strokeColor=#36393d;" parent="1" vertex="1">
          <mxGeometry x="280" y="320" width="40" height="120" as="geometry" />
        </mxCell>
        <mxCell id="IJlLa6e08x084-JysXPc-13" value="" style="rounded=0;whiteSpace=wrap;html=1;fillColor=#eeeeee;strokeColor=#36393d;" parent="1" vertex="1">
          <mxGeometry x="240" y="240" width="80" height="40" as="geometry" />
        </mxCell>
        <mxCell id="IJlLa6e08x084-JysXPc-14" value="" style="ellipse;whiteSpace=wrap;html=1;aspect=fixed;strokeColor=none;fillColor=#663300;" parent="1" vertex="1">
          <mxGeometry x="180" y="415" width="10" height="10" as="geometry" />
        </mxCell>
        <mxCell id="IJlLa6e08x084-JysXPc-16" value="" style="endArrow=classic;html=1;rounded=0;exitX=0.003;exitY=0.223;exitDx=0;exitDy=0;exitPerimeter=0;endSize=6;startSize=6;jumpSize=6;strokeWidth=1;" parent="1" edge="1">
          <mxGeometry width="50" height="50" relative="1" as="geometry">
            <mxPoint x="89.99999999999994" y="285" as="sourcePoint" />
            <mxPoint x="250" y="300" as="targetPoint" />
          </mxGeometry>
        </mxCell>
        <mxCell id="IJlLa6e08x084-JysXPc-17" value="" style="endArrow=classic;html=1;rounded=0;" parent="1" edge="1">
          <mxGeometry width="50" height="50" relative="1" as="geometry">
            <mxPoint x="250" y="300" as="sourcePoint" />
            <mxPoint x="250" y="410" as="targetPoint" />
          </mxGeometry>
        </mxCell>
        <mxCell id="IJlLa6e08x084-JysXPc-18" value="" style="endArrow=classic;html=1;rounded=0;entryX=1;entryY=0;entryDx=0;entryDy=0;" parent="1" target="IJlLa6e08x084-JysXPc-14" edge="1">
          <mxGeometry width="50" height="50" relative="1" as="geometry">
            <mxPoint x="250" y="410" as="sourcePoint" />
            <mxPoint x="430" y="350" as="targetPoint" />
          </mxGeometry>
        </mxCell>
        <mxCell id="IJlLa6e08x084-JysXPc-19" value="" style="endArrow=classic;html=1;rounded=0;exitX=1;exitY=1;exitDx=0;exitDy=0;" parent="1" source="IJlLa6e08x084-JysXPc-14" edge="1">
          <mxGeometry width="50" height="50" relative="1" as="geometry">
            <mxPoint x="200" y="430" as="sourcePoint" />
            <mxPoint x="270" y="410" as="targetPoint" />
          </mxGeometry>
        </mxCell>
        <mxCell id="IJlLa6e08x084-JysXPc-20" value="" style="endArrow=classic;html=1;rounded=0;shadow=0;" parent="1" edge="1">
          <mxGeometry width="50" height="50" relative="1" as="geometry">
            <mxPoint x="270" y="410" as="sourcePoint" />
            <mxPoint x="260" y="310" as="targetPoint" />
          </mxGeometry>
        </mxCell>
        <mxCell id="IJlLa6e08x084-JysXPc-21" value="" style="endArrow=classic;html=1;rounded=0;entryX=0;entryY=0.5;entryDx=0;entryDy=0;" parent="1" target="IJlLa6e08x084-JysXPc-129" edge="1">
          <mxGeometry width="50" height="50" relative="1" as="geometry">
            <mxPoint x="260" y="310" as="sourcePoint" />
            <mxPoint x="280" y="300" as="targetPoint" />
          </mxGeometry>
        </mxCell>
        <mxCell id="IJlLa6e08x084-JysXPc-24" value="Зона где без фонарика не пройти" style="rounded=0;whiteSpace=wrap;html=1;fillColor=#cce5ff;strokeColor=#36393d;" parent="1" vertex="1">
          <mxGeometry x="200" width="100" height="45" as="geometry" />
        </mxCell>
        <mxCell id="IJlLa6e08x084-JysXPc-25" value="" style="endArrow=classic;html=1;rounded=0;entryX=0;entryY=0.5;entryDx=0;entryDy=0;" parent="1" target="IJlLa6e08x084-JysXPc-26" edge="1">
          <mxGeometry width="50" height="50" relative="1" as="geometry">
            <mxPoint x="200" y="85" as="sourcePoint" />
            <mxPoint x="240" y="80" as="targetPoint" />
          </mxGeometry>
        </mxCell>
        <mxCell id="IJlLa6e08x084-JysXPc-26" value="Путь игрока" style="text;html=1;align=center;verticalAlign=middle;whiteSpace=wrap;rounded=0;strokeColor=default;" parent="1" vertex="1">
          <mxGeometry x="240" y="70" width="60" height="30" as="geometry" />
        </mxCell>
        <mxCell id="IJlLa6e08x084-JysXPc-27" value="" style="ellipse;whiteSpace=wrap;html=1;aspect=fixed;spacingTop=0;spacingBottom=0;spacing=2;spacingRight=0;textShadow=0;fillColor=#000000;strokeColor=none;" parent="1" vertex="1">
          <mxGeometry x="380" y="200" width="30" height="30" as="geometry" />
        </mxCell>
        <mxCell id="IJlLa6e08x084-JysXPc-28" value="Фонарик" style="text;html=1;align=center;verticalAlign=middle;whiteSpace=wrap;rounded=0;strokeColor=default;" parent="1" vertex="1">
          <mxGeometry x="440" y="200" width="60" height="30" as="geometry" />
        </mxCell>
        <mxCell id="IJlLa6e08x084-JysXPc-30" value="" style="endArrow=classic;html=1;rounded=0;exitX=1;exitY=0.5;exitDx=0;exitDy=0;entryX=0;entryY=0.5;entryDx=0;entryDy=0;" parent="1" source="IJlLa6e08x084-JysXPc-27" target="IJlLa6e08x084-JysXPc-28" edge="1">
          <mxGeometry width="50" height="50" relative="1" as="geometry">
            <mxPoint x="460" y="220" as="sourcePoint" />
            <mxPoint x="510" y="170" as="targetPoint" />
          </mxGeometry>
        </mxCell>
        <mxCell id="IJlLa6e08x084-JysXPc-31" value="" style="ellipse;whiteSpace=wrap;html=1;aspect=fixed;spacingTop=0;spacingBottom=0;spacing=2;spacingRight=0;textShadow=0;fillColor=#663300;strokeColor=none;" parent="1" vertex="1">
          <mxGeometry x="380" y="250" width="30" height="30" as="geometry" />
        </mxCell>
        <mxCell id="IJlLa6e08x084-JysXPc-32" value="Доска" style="text;html=1;align=center;verticalAlign=middle;whiteSpace=wrap;rounded=0;strokeColor=default;" parent="1" vertex="1">
          <mxGeometry x="440" y="250" width="60" height="30" as="geometry" />
        </mxCell>
        <mxCell id="IJlLa6e08x084-JysXPc-33" value="" style="endArrow=classic;html=1;rounded=0;exitX=1;exitY=0.5;exitDx=0;exitDy=0;entryX=0;entryY=0.5;entryDx=0;entryDy=0;" parent="1" source="IJlLa6e08x084-JysXPc-31" target="IJlLa6e08x084-JysXPc-32" edge="1">
          <mxGeometry width="50" height="50" relative="1" as="geometry">
            <mxPoint x="460" y="270" as="sourcePoint" />
            <mxPoint x="510" y="220" as="targetPoint" />
          </mxGeometry>
        </mxCell>
        <mxCell id="IJlLa6e08x084-JysXPc-34" value="Чтобы подняться по лестнице нужна доска" style="shape=note;whiteSpace=wrap;html=1;backgroundOutline=1;darkOpacity=0.05;align=left;" parent="1" vertex="1">
          <mxGeometry x="440" y="290" width="80" height="100" as="geometry" />
        </mxCell>
        <mxCell id="IJlLa6e08x084-JysXPc-37" value="" style="endArrow=none;html=1;rounded=0;exitX=0;exitY=0;exitDx=0;exitDy=0;" parent="1" edge="1">
          <mxGeometry width="50" height="50" relative="1" as="geometry">
            <mxPoint y="480" as="sourcePoint" />
            <mxPoint x="820" y="480" as="targetPoint" />
          </mxGeometry>
        </mxCell>
        <mxCell id="IJlLa6e08x084-JysXPc-38" value="Этаж 2" style="text;html=1;align=center;verticalAlign=middle;whiteSpace=wrap;rounded=1;labelBorderColor=none;fontStyle=1;fontSize=18;fillColor=#f5f5f5;fontColor=#333333;strokeColor=#666666;shadow=0;gradientColor=none;" parent="1" vertex="1">
          <mxGeometry y="480" width="120" height="40" as="geometry" />
        </mxCell>
        <mxCell id="IJlLa6e08x084-JysXPc-42" value="" style="endArrow=classic;html=1;rounded=0;strokeColor=#97D077;entryX=1;entryY=0.75;entryDx=0;entryDy=0;" parent="1" target="IJlLa6e08x084-JysXPc-54" edge="1">
          <mxGeometry width="50" height="50" relative="1" as="geometry">
            <mxPoint x="100" y="610" as="sourcePoint" />
            <mxPoint x="120" y="610" as="targetPoint" />
          </mxGeometry>
        </mxCell>
        <mxCell id="IJlLa6e08x084-JysXPc-43" value="" style="endArrow=none;html=1;rounded=0;exitX=1;exitY=0.5;exitDx=0;exitDy=0;fillColor=#cdeb8b;strokeColor=#97D077;" parent="1" source="IJlLa6e08x084-JysXPc-53" edge="1">
          <mxGeometry width="50" height="50" relative="1" as="geometry">
            <mxPoint x="170" y="600" as="sourcePoint" />
            <mxPoint x="100" y="610" as="targetPoint" />
            <Array as="points">
              <mxPoint x="100" y="575" />
            </Array>
          </mxGeometry>
        </mxCell>
        <mxCell id="IJlLa6e08x084-JysXPc-46" value="" style="ellipse;whiteSpace=wrap;html=1;aspect=fixed;fillColor=#DAE8FC;" parent="1" vertex="1">
          <mxGeometry x="210" y="650" width="30" height="30" as="geometry" />
        </mxCell>
        <mxCell id="IJlLa6e08x084-JysXPc-47" value="" style="endArrow=none;html=1;rounded=0;" parent="1" edge="1">
          <mxGeometry width="50" height="50" relative="1" as="geometry">
            <mxPoint x="130" y="640" as="sourcePoint" />
            <mxPoint x="195.12" y="640" as="targetPoint" />
          </mxGeometry>
        </mxCell>
        <mxCell id="IJlLa6e08x084-JysXPc-48" value="" style="endArrow=none;html=1;rounded=0;" parent="1" edge="1">
          <mxGeometry width="50" height="50" relative="1" as="geometry">
            <mxPoint x="130" y="680" as="sourcePoint" />
            <mxPoint x="130" y="600" as="targetPoint" />
          </mxGeometry>
        </mxCell>
        <mxCell id="IJlLa6e08x084-JysXPc-49" value="" style="endArrow=none;html=1;rounded=0;" parent="1" edge="1">
          <mxGeometry width="50" height="50" relative="1" as="geometry">
            <mxPoint x="160" y="600" as="sourcePoint" />
            <mxPoint x="240" y="600" as="targetPoint" />
          </mxGeometry>
        </mxCell>
        <mxCell id="IJlLa6e08x084-JysXPc-50" value="" style="endArrow=none;html=1;rounded=0;" parent="1" edge="1">
          <mxGeometry width="50" height="50" relative="1" as="geometry">
            <mxPoint x="130" y="680" as="sourcePoint" />
            <mxPoint x="240" y="680" as="targetPoint" />
          </mxGeometry>
        </mxCell>
        <mxCell id="IJlLa6e08x084-JysXPc-51" value="" style="endArrow=none;html=1;rounded=0;" parent="1" edge="1">
          <mxGeometry width="50" height="50" relative="1" as="geometry">
            <mxPoint x="240" y="680" as="sourcePoint" />
            <mxPoint x="240" y="560" as="targetPoint" />
          </mxGeometry>
        </mxCell>
        <mxCell id="IJlLa6e08x084-JysXPc-52" value="" style="endArrow=none;html=1;rounded=0;exitX=1;exitY=1;exitDx=0;exitDy=0;" parent="1" source="IJlLa6e08x084-JysXPc-54" edge="1">
          <mxGeometry width="50" height="50" relative="1" as="geometry">
            <mxPoint x="110" y="640" as="sourcePoint" />
            <mxPoint x="130" y="600" as="targetPoint" />
          </mxGeometry>
        </mxCell>
        <mxCell id="IJlLa6e08x084-JysXPc-53" value="На 1 этаж" style="rounded=0;whiteSpace=wrap;html=1;fillColor=#ffcd28;strokeColor=#d79b00;gradientColor=#ffa500;" parent="1" vertex="1">
          <mxGeometry x="60" y="560" width="30" height="30" as="geometry" />
        </mxCell>
        <mxCell id="IJlLa6e08x084-JysXPc-54" value="На 3 этаж" style="rounded=0;whiteSpace=wrap;html=1;fillColor=#ffcd28;strokeColor=#d79b00;gradientColor=#ffa500;" parent="1" vertex="1">
          <mxGeometry x="60" y="590" width="30" height="30" as="geometry" />
        </mxCell>
        <mxCell id="IJlLa6e08x084-JysXPc-55" value="" style="endArrow=none;html=1;rounded=0;exitX=1;exitY=0;exitDx=0;exitDy=0;" parent="1" source="IJlLa6e08x084-JysXPc-53" edge="1">
          <mxGeometry width="50" height="50" relative="1" as="geometry">
            <mxPoint x="160" y="600" as="sourcePoint" />
            <mxPoint x="240" y="560" as="targetPoint" />
          </mxGeometry>
        </mxCell>
        <mxCell id="IJlLa6e08x084-JysXPc-56" value="" style="rounded=0;whiteSpace=wrap;html=1;fillColor=#ffe6cc;strokeColor=#d79b00;" parent="1" vertex="1">
          <mxGeometry x="230" y="570" width="10" height="20" as="geometry" />
        </mxCell>
        <mxCell id="IJlLa6e08x084-JysXPc-58" value="" style="endArrow=none;html=1;rounded=0;exitX=1;exitY=0.25;exitDx=0;exitDy=0;fillColor=#f8cecc;strokeColor=#b85450;gradientColor=#ea6b66;" parent="1" source="IJlLa6e08x084-JysXPc-54" edge="1">
          <mxGeometry width="50" height="50" relative="1" as="geometry">
            <mxPoint x="215.12" y="620" as="sourcePoint" />
            <mxPoint x="135.12" y="590" as="targetPoint" />
          </mxGeometry>
        </mxCell>
        <mxCell id="IJlLa6e08x084-JysXPc-60" value="" style="endArrow=classic;html=1;rounded=0;fillColor=#f8cecc;gradientColor=#ea6b66;strokeColor=#b85450;" parent="1" edge="1">
          <mxGeometry width="50" height="50" relative="1" as="geometry">
            <mxPoint x="135.12" y="590" as="sourcePoint" />
            <mxPoint x="135.12" y="630" as="targetPoint" />
          </mxGeometry>
        </mxCell>
        <mxCell id="IJlLa6e08x084-JysXPc-61" value="" style="endArrow=none;html=1;rounded=0;fillColor=#f8cecc;gradientColor=#ea6b66;strokeColor=#b85450;" parent="1" edge="1">
          <mxGeometry width="50" height="50" relative="1" as="geometry">
            <mxPoint x="135.12" y="630" as="sourcePoint" />
            <mxPoint x="205.12" y="630" as="targetPoint" />
          </mxGeometry>
        </mxCell>
        <mxCell id="IJlLa6e08x084-JysXPc-63" value="" style="endArrow=classic;html=1;rounded=0;fillColor=#f8cecc;gradientColor=#ea6b66;strokeColor=#b85450;" parent="1" edge="1">
          <mxGeometry width="50" height="50" relative="1" as="geometry">
            <mxPoint x="205.12" y="630" as="sourcePoint" />
            <mxPoint x="195.12" y="670" as="targetPoint" />
          </mxGeometry>
        </mxCell>
        <mxCell id="IJlLa6e08x084-JysXPc-64" value="" style="endArrow=none;html=1;rounded=0;fillColor=#f8cecc;gradientColor=#ea6b66;strokeColor=#b85450;" parent="1" edge="1">
          <mxGeometry width="50" height="50" relative="1" as="geometry">
            <mxPoint x="205.12" y="670" as="sourcePoint" />
            <mxPoint x="215.12" y="620" as="targetPoint" />
          </mxGeometry>
        </mxCell>
        <mxCell id="IJlLa6e08x084-JysXPc-65" value="" style="endArrow=classic;html=1;rounded=0;fillColor=#f8cecc;gradientColor=#ea6b66;strokeColor=#b85450;" parent="1" edge="1">
          <mxGeometry width="50" height="50" relative="1" as="geometry">
            <mxPoint x="215.12" y="620" as="sourcePoint" />
            <mxPoint x="145.12" y="610" as="targetPoint" />
          </mxGeometry>
        </mxCell>
        <mxCell id="IJlLa6e08x084-JysXPc-66" value="" style="endArrow=classic;html=1;rounded=0;entryX=0;entryY=0.5;entryDx=0;entryDy=0;fillColor=#f8cecc;gradientColor=#ea6b66;strokeColor=#b85450;" parent="1" target="IJlLa6e08x084-JysXPc-56" edge="1">
          <mxGeometry width="50" height="50" relative="1" as="geometry">
            <mxPoint x="145.12" y="600" as="sourcePoint" />
            <mxPoint x="265.12" y="570" as="targetPoint" />
          </mxGeometry>
        </mxCell>
        <mxCell id="IJlLa6e08x084-JysXPc-67" value="" style="endArrow=none;html=1;rounded=0;fillColor=#f8cecc;gradientColor=#ea6b66;strokeColor=#b85450;" parent="1" edge="1">
          <mxGeometry width="50" height="50" relative="1" as="geometry">
            <mxPoint x="145.12" y="600" as="sourcePoint" />
            <mxPoint x="145.12" y="610" as="targetPoint" />
          </mxGeometry>
        </mxCell>
        <mxCell id="IJlLa6e08x084-JysXPc-68" value="" style="endArrow=classic;html=1;rounded=0;fillColor=#f8cecc;gradientColor=#ea6b66;strokeColor=#b85450;" parent="1" edge="1">
          <mxGeometry width="50" height="50" relative="1" as="geometry">
            <mxPoint x="195.12" y="670" as="sourcePoint" />
            <mxPoint x="205.12" y="670" as="targetPoint" />
          </mxGeometry>
        </mxCell>
        <mxCell id="IJlLa6e08x084-JysXPc-69" value="" style="endArrow=classic;html=1;rounded=0;strokeColor=#97D077;entryX=0;entryY=0.5;entryDx=0;entryDy=0;" parent="1" target="IJlLa6e08x084-JysXPc-73" edge="1">
          <mxGeometry width="50" height="50" relative="1" as="geometry">
            <mxPoint x="325" y="564.88" as="sourcePoint" />
            <mxPoint x="355" y="564.88" as="targetPoint" />
          </mxGeometry>
        </mxCell>
        <mxCell id="IJlLa6e08x084-JysXPc-70" value="" style="endArrow=classic;html=1;rounded=0;fillColor=#f8cecc;gradientColor=#ea6b66;strokeColor=#b85450;entryX=0;entryY=0.5;entryDx=0;entryDy=0;" parent="1" edge="1">
          <mxGeometry width="50" height="50" relative="1" as="geometry">
            <mxPoint x="325" y="604" as="sourcePoint" />
            <mxPoint x="365" y="604" as="targetPoint" />
          </mxGeometry>
        </mxCell>
        <mxCell id="IJlLa6e08x084-JysXPc-73" value="Игрок идет в 1 раз" style="text;html=1;align=center;verticalAlign=middle;whiteSpace=wrap;rounded=0;strokeColor=default;" parent="1" vertex="1">
          <mxGeometry x="365" y="550" width="70" height="30" as="geometry" />
        </mxCell>
        <mxCell id="IJlLa6e08x084-JysXPc-74" value="Игрок идет во 2 раз" style="text;html=1;align=center;verticalAlign=middle;whiteSpace=wrap;rounded=0;strokeColor=default;" parent="1" vertex="1">
          <mxGeometry x="365" y="590" width="70" height="30" as="geometry" />
        </mxCell>
        <mxCell id="IJlLa6e08x084-JysXPc-75" value="" style="ellipse;whiteSpace=wrap;html=1;aspect=fixed;" parent="1" vertex="1">
          <mxGeometry x="325" y="630" width="30" height="30" as="geometry" />
        </mxCell>
        <mxCell id="IJlLa6e08x084-JysXPc-76" value="Тяжелый предмет" style="text;html=1;align=center;verticalAlign=middle;whiteSpace=wrap;rounded=0;strokeColor=default;" parent="1" vertex="1">
          <mxGeometry x="375" y="630" width="60" height="30" as="geometry" />
        </mxCell>
        <mxCell id="IJlLa6e08x084-JysXPc-77" value="" style="endArrow=classic;html=1;rounded=0;exitX=1;exitY=0.5;exitDx=0;exitDy=0;entryX=0;entryY=0.5;entryDx=0;entryDy=0;" parent="1" source="IJlLa6e08x084-JysXPc-75" target="IJlLa6e08x084-JysXPc-76" edge="1">
          <mxGeometry width="50" height="50" relative="1" as="geometry">
            <mxPoint x="355" y="620" as="sourcePoint" />
            <mxPoint x="405" y="570" as="targetPoint" />
          </mxGeometry>
        </mxCell>
        <mxCell id="IJlLa6e08x084-JysXPc-79" value="В первый раз игроку не нужно на 2 этаж, по этому он идет на 3. Во второй раз игроку нужно разбить окно, поэтому нужно подобрать предмет" style="shape=note;whiteSpace=wrap;html=1;backgroundOutline=1;darkOpacity=0.05;align=left;" parent="1" vertex="1">
          <mxGeometry x="460" y="545" width="170" height="120" as="geometry" />
        </mxCell>
        <mxCell id="IJlLa6e08x084-JysXPc-82" value="" style="endArrow=none;html=1;rounded=0;exitX=0;exitY=0;exitDx=0;exitDy=0;" parent="1" edge="1">
          <mxGeometry width="50" height="50" relative="1" as="geometry">
            <mxPoint y="730" as="sourcePoint" />
            <mxPoint x="820" y="730" as="targetPoint" />
          </mxGeometry>
        </mxCell>
        <mxCell id="IJlLa6e08x084-JysXPc-83" value="Этаж 3" style="text;html=1;align=center;verticalAlign=middle;whiteSpace=wrap;rounded=1;labelBorderColor=none;fontStyle=1;fontSize=18;fillColor=#f5f5f5;fontColor=#333333;strokeColor=#666666;shadow=0;gradientColor=none;" parent="1" vertex="1">
          <mxGeometry y="730" width="120" height="40" as="geometry" />
        </mxCell>
        <mxCell id="IJlLa6e08x084-JysXPc-84" value="На 2 этаж" style="rounded=0;whiteSpace=wrap;html=1;fillColor=#ffcd28;strokeColor=#d79b00;gradientColor=#ffa500;" parent="1" vertex="1">
          <mxGeometry x="12.21" y="825" width="40" height="40" as="geometry" />
        </mxCell>
        <mxCell id="IJlLa6e08x084-JysXPc-86" value="" style="endArrow=none;html=1;rounded=0;exitX=1;exitY=0;exitDx=0;exitDy=0;" parent="1" source="IJlLa6e08x084-JysXPc-84" edge="1">
          <mxGeometry width="50" height="50" relative="1" as="geometry">
            <mxPoint x="192.21" y="865" as="sourcePoint" />
            <mxPoint x="272.21" y="825" as="targetPoint" />
          </mxGeometry>
        </mxCell>
        <mxCell id="IJlLa6e08x084-JysXPc-87" value="" style="endArrow=none;html=1;rounded=0;" parent="1" edge="1">
          <mxGeometry width="50" height="50" relative="1" as="geometry">
            <mxPoint x="272.21" y="965" as="sourcePoint" />
            <mxPoint x="272.21" y="825" as="targetPoint" />
          </mxGeometry>
        </mxCell>
        <mxCell id="IJlLa6e08x084-JysXPc-88" value="" style="endArrow=none;html=1;rounded=0;" parent="1" edge="1">
          <mxGeometry width="50" height="50" relative="1" as="geometry">
            <mxPoint x="122.21" y="865" as="sourcePoint" />
            <mxPoint x="272.21" y="865" as="targetPoint" />
          </mxGeometry>
        </mxCell>
        <mxCell id="IJlLa6e08x084-JysXPc-89" value="" style="endArrow=none;html=1;rounded=0;exitX=1;exitY=1;exitDx=0;exitDy=0;" parent="1" source="IJlLa6e08x084-JysXPc-84" edge="1">
          <mxGeometry width="50" height="50" relative="1" as="geometry">
            <mxPoint x="192.21" y="865" as="sourcePoint" />
            <mxPoint x="92.21" y="865" as="targetPoint" />
          </mxGeometry>
        </mxCell>
        <mxCell id="IJlLa6e08x084-JysXPc-90" value="" style="endArrow=none;html=1;rounded=0;" parent="1" edge="1">
          <mxGeometry width="50" height="50" relative="1" as="geometry">
            <mxPoint x="92.21" y="865" as="sourcePoint" />
            <mxPoint x="92.21" y="915" as="targetPoint" />
          </mxGeometry>
        </mxCell>
        <mxCell id="IJlLa6e08x084-JysXPc-91" value="" style="endArrow=none;html=1;rounded=0;endSize=6;targetPerimeterSpacing=0;" parent="1" edge="1">
          <mxGeometry width="50" height="50" relative="1" as="geometry">
            <mxPoint x="92.21" y="915" as="sourcePoint" />
            <mxPoint x="157.21" y="915" as="targetPoint" />
          </mxGeometry>
        </mxCell>
        <mxCell id="IJlLa6e08x084-JysXPc-95" value="Шкаф" style="rounded=0;whiteSpace=wrap;html=1;align=center;fontSize=10;spacing=2;spacingTop=-2;fillColor=#d0cee2;strokeColor=#56517e;" parent="1" vertex="1">
          <mxGeometry x="122.21" y="865" width="40" height="10" as="geometry" />
        </mxCell>
        <mxCell id="IJlLa6e08x084-JysXPc-98" value="" style="endArrow=none;html=1;rounded=0;" parent="1" edge="1">
          <mxGeometry width="50" height="50" relative="1" as="geometry">
            <mxPoint x="157.09" y="915" as="sourcePoint" />
            <mxPoint x="157.21" y="965" as="targetPoint" />
          </mxGeometry>
        </mxCell>
        <mxCell id="IJlLa6e08x084-JysXPc-99" value="" style="endArrow=none;html=1;rounded=0;endSize=6;targetPerimeterSpacing=0;" parent="1" edge="1">
          <mxGeometry width="50" height="50" relative="1" as="geometry">
            <mxPoint x="157.09" y="965" as="sourcePoint" />
            <mxPoint x="272.21" y="965" as="targetPoint" />
          </mxGeometry>
        </mxCell>
        <mxCell id="IJlLa6e08x084-JysXPc-100" value="" style="rounded=0;whiteSpace=wrap;html=1;fillColor=#6d8764;fontColor=#ffffff;strokeColor=#3A5431;" parent="1" vertex="1">
          <mxGeometry x="167.09" y="935" width="15.12" height="30" as="geometry" />
        </mxCell>
        <mxCell id="IJlLa6e08x084-JysXPc-101" value="" style="rounded=0;whiteSpace=wrap;html=1;fillColor=#6d8764;fontColor=#ffffff;strokeColor=#3A5431;" parent="1" vertex="1">
          <mxGeometry x="212.21" y="935" width="15.12" height="30" as="geometry" />
        </mxCell>
        <mxCell id="IJlLa6e08x084-JysXPc-102" value="" style="rounded=0;whiteSpace=wrap;html=1;fillColor=#6d8764;fontColor=#ffffff;strokeColor=#3A5431;" parent="1" vertex="1">
          <mxGeometry x="192.21" y="955" width="10" height="10" as="geometry" />
        </mxCell>
        <mxCell id="IJlLa6e08x084-JysXPc-103" value="" style="rounded=0;whiteSpace=wrap;html=1;fillColor=#6d8764;fontColor=#ffffff;strokeColor=#3A5431;" parent="1" vertex="1">
          <mxGeometry x="187.09" y="865" width="70" height="20" as="geometry" />
        </mxCell>
        <mxCell id="IJlLa6e08x084-JysXPc-104" value="" style="rounded=0;whiteSpace=wrap;html=1;fillColor=#6d8764;fontColor=#ffffff;strokeColor=#3A5431;" parent="1" vertex="1">
          <mxGeometry x="257.21" y="915" width="10" height="10" as="geometry" />
        </mxCell>
        <mxCell id="IJlLa6e08x084-JysXPc-105" value="" style="triangle;whiteSpace=wrap;html=1;direction=south;fillColor=#76608a;fontColor=#ffffff;strokeColor=#432D57;" parent="1" vertex="1">
          <mxGeometry x="257.09" y="895" width="10" height="10" as="geometry" />
        </mxCell>
        <mxCell id="IJlLa6e08x084-JysXPc-106" value="" style="triangle;whiteSpace=wrap;html=1;direction=north;fillColor=#76608a;fontColor=#ffffff;strokeColor=#432D57;" parent="1" vertex="1">
          <mxGeometry x="257.09" y="935" width="10" height="10" as="geometry" />
        </mxCell>
        <mxCell id="IJlLa6e08x084-JysXPc-109" value="" style="rounded=0;whiteSpace=wrap;html=1;fillColor=#6d8764;fontColor=#ffffff;strokeColor=#3A5431;" parent="1" vertex="1">
          <mxGeometry x="410" y="790" width="20" height="20" as="geometry" />
        </mxCell>
        <mxCell id="IJlLa6e08x084-JysXPc-110" value="Декор" style="text;html=1;align=center;verticalAlign=middle;whiteSpace=wrap;rounded=0;shadow=0;strokeColor=default;" parent="1" vertex="1">
          <mxGeometry x="460" y="785" width="60" height="30" as="geometry" />
        </mxCell>
        <mxCell id="IJlLa6e08x084-JysXPc-111" value="" style="endArrow=classic;html=1;rounded=0;exitX=1;exitY=0.5;exitDx=0;exitDy=0;entryX=0;entryY=0.5;entryDx=0;entryDy=0;" parent="1" source="IJlLa6e08x084-JysXPc-109" target="IJlLa6e08x084-JysXPc-110" edge="1">
          <mxGeometry width="50" height="50" relative="1" as="geometry">
            <mxPoint x="460" y="800" as="sourcePoint" />
            <mxPoint x="510" y="750" as="targetPoint" />
          </mxGeometry>
        </mxCell>
        <mxCell id="IJlLa6e08x084-JysXPc-112" value="" style="triangle;whiteSpace=wrap;html=1;direction=south;fillColor=#76608a;fontColor=#ffffff;strokeColor=#432D57;" parent="1" vertex="1">
          <mxGeometry x="410" y="830" width="20" height="20" as="geometry" />
        </mxCell>
        <mxCell id="IJlLa6e08x084-JysXPc-113" value="Декор" style="text;html=1;align=center;verticalAlign=middle;whiteSpace=wrap;rounded=0;shadow=0;strokeColor=default;" parent="1" vertex="1">
          <mxGeometry x="460" y="825" width="60" height="30" as="geometry" />
        </mxCell>
        <mxCell id="IJlLa6e08x084-JysXPc-114" value="" style="endArrow=classic;html=1;rounded=0;exitX=0.5;exitY=0;exitDx=0;exitDy=0;entryX=0;entryY=0.5;entryDx=0;entryDy=0;" parent="1" source="IJlLa6e08x084-JysXPc-112" target="IJlLa6e08x084-JysXPc-113" edge="1">
          <mxGeometry width="50" height="50" relative="1" as="geometry">
            <mxPoint x="460" y="850" as="sourcePoint" />
            <mxPoint x="510" y="800" as="targetPoint" />
          </mxGeometry>
        </mxCell>
        <mxCell id="IJlLa6e08x084-JysXPc-115" value="" style="rounded=0;whiteSpace=wrap;html=1;fillColor=#0050ef;fontColor=#ffffff;strokeColor=none;" parent="1" vertex="1">
          <mxGeometry x="410" y="870" width="25" height="30" as="geometry" />
        </mxCell>
        <mxCell id="IJlLa6e08x084-JysXPc-116" value="Загадка" style="text;html=1;align=center;verticalAlign=middle;whiteSpace=wrap;rounded=0;fillColor=none;strokeColor=default;" parent="1" vertex="1">
          <mxGeometry x="460" y="870" width="60" height="30" as="geometry" />
        </mxCell>
        <mxCell id="IJlLa6e08x084-JysXPc-117" value="" style="endArrow=classic;html=1;rounded=0;exitX=1;exitY=0.5;exitDx=0;exitDy=0;entryX=0;entryY=0.5;entryDx=0;entryDy=0;" parent="1" source="IJlLa6e08x084-JysXPc-115" target="IJlLa6e08x084-JysXPc-116" edge="1">
          <mxGeometry width="50" height="50" relative="1" as="geometry">
            <mxPoint x="460" y="910" as="sourcePoint" />
            <mxPoint x="510" y="860" as="targetPoint" />
          </mxGeometry>
        </mxCell>
        <mxCell id="IJlLa6e08x084-JysXPc-118" value="" style="endArrow=classic;html=1;rounded=0;entryX=0;entryY=1;entryDx=0;entryDy=0;" parent="1" target="IJlLa6e08x084-JysXPc-107" edge="1">
          <mxGeometry width="50" height="50" relative="1" as="geometry">
            <mxPoint x="102.21" y="905" as="sourcePoint" />
            <mxPoint x="232.21" y="895" as="targetPoint" />
            <Array as="points">
              <mxPoint x="132.21" y="905" />
            </Array>
          </mxGeometry>
        </mxCell>
        <mxCell id="IJlLa6e08x084-JysXPc-119" value="" style="endArrow=none;html=1;rounded=0;exitX=1;exitY=0.75;exitDx=0;exitDy=0;" parent="1" source="IJlLa6e08x084-JysXPc-84" edge="1">
          <mxGeometry width="50" height="50" relative="1" as="geometry">
            <mxPoint x="162.21" y="925" as="sourcePoint" />
            <mxPoint x="102.21" y="865" as="targetPoint" />
          </mxGeometry>
        </mxCell>
        <mxCell id="IJlLa6e08x084-JysXPc-120" value="" style="endArrow=none;html=1;rounded=0;" parent="1" edge="1">
          <mxGeometry width="50" height="50" relative="1" as="geometry">
            <mxPoint x="102.21" y="865" as="sourcePoint" />
            <mxPoint x="102.21" y="905" as="targetPoint" />
          </mxGeometry>
        </mxCell>
        <mxCell id="IJlLa6e08x084-JysXPc-123" value="" style="endArrow=none;html=1;rounded=0;entryX=0;entryY=0.75;entryDx=0;entryDy=0;" parent="1" target="IJlLa6e08x084-JysXPc-107" edge="1">
          <mxGeometry width="50" height="50" relative="1" as="geometry">
            <mxPoint x="162.21" y="885" as="sourcePoint" />
            <mxPoint x="212.21" y="875" as="targetPoint" />
          </mxGeometry>
        </mxCell>
        <mxCell id="IJlLa6e08x084-JysXPc-124" value="" style="endArrow=none;html=1;rounded=0;entryX=0;entryY=1;entryDx=0;entryDy=0;" parent="1" target="IJlLa6e08x084-JysXPc-95" edge="1">
          <mxGeometry width="50" height="50" relative="1" as="geometry">
            <mxPoint x="162.21" y="885" as="sourcePoint" />
            <mxPoint x="202.21" y="865" as="targetPoint" />
          </mxGeometry>
        </mxCell>
        <mxCell id="IJlLa6e08x084-JysXPc-125" value="" style="endArrow=classic;html=1;rounded=0;" parent="1" edge="1">
          <mxGeometry width="50" height="50" relative="1" as="geometry">
            <mxPoint x="122.21" y="875" as="sourcePoint" />
            <mxPoint x="92.21" y="835" as="targetPoint" />
          </mxGeometry>
        </mxCell>
        <mxCell id="IJlLa6e08x084-JysXPc-126" value="" style="endArrow=classic;html=1;rounded=0;entryX=1;entryY=0.25;entryDx=0;entryDy=0;" parent="1" target="IJlLa6e08x084-JysXPc-84" edge="1">
          <mxGeometry width="50" height="50" relative="1" as="geometry">
            <mxPoint x="92.21" y="835" as="sourcePoint" />
            <mxPoint x="202.21" y="865" as="targetPoint" />
          </mxGeometry>
        </mxCell>
        <mxCell id="IJlLa6e08x084-JysXPc-127" value="Чтобы открыть шкаф нужно решить загадку, потом игрок идет на 2 этаж" style="shape=note;whiteSpace=wrap;html=1;backgroundOutline=1;darkOpacity=0.05;align=left;" parent="1" vertex="1">
          <mxGeometry x="540" y="780" width="120" height="110" as="geometry" />
        </mxCell>
        <mxCell id="IJlLa6e08x084-JysXPc-129" value="На 2 этаж" style="rounded=0;whiteSpace=wrap;html=1;fillColor=#ffcd28;strokeColor=#d79b00;gradientColor=#ffa500;" parent="1" vertex="1">
          <mxGeometry x="280" y="280" width="40" height="40" as="geometry" />
        </mxCell>
        <mxCell id="IJlLa6e08x084-JysXPc-130" value="Лест&lt;div&gt;ница&lt;/div&gt;" style="rounded=0;whiteSpace=wrap;html=1;fillColor=#ffcd28;strokeColor=#d79b00;gradientColor=#ffa500;" parent="1" vertex="1">
          <mxGeometry x="240" y="110" width="40" height="40" as="geometry" />
        </mxCell>
        <mxCell id="SqXw7bOEsqwqvFWr4ap--1" value="" style="endArrow=none;html=1;rounded=0;" edge="1" parent="1">
          <mxGeometry width="50" height="50" relative="1" as="geometry">
            <mxPoint x="160" y="470" as="sourcePoint" />
            <mxPoint x="160" y="450" as="targetPoint" />
          </mxGeometry>
        </mxCell>
        <mxCell id="SqXw7bOEsqwqvFWr4ap--5" value="" style="endArrow=none;html=1;rounded=0;" edge="1" parent="1">
          <mxGeometry width="50" height="50" relative="1" as="geometry">
            <mxPoint x="319.52" y="230" as="sourcePoint" />
            <mxPoint x="319.52" y="210" as="targetPoint" />
          </mxGeometry>
        </mxCell>
        <mxCell id="SqXw7bOEsqwqvFWr4ap--6" value="&lt;div&gt;20&lt;/div&gt;" style="endArrow=none;html=1;rounded=0;" edge="1" parent="1">
          <mxGeometry width="50" height="50" relative="1" as="geometry">
            <mxPoint x="90" y="210" as="sourcePoint" />
            <mxPoint x="320" y="210" as="targetPoint" />
          </mxGeometry>
        </mxCell>
        <mxCell id="SqXw7bOEsqwqvFWr4ap--7" value="" style="endArrow=none;html=1;rounded=0;" edge="1" parent="1">
          <mxGeometry width="50" height="50" relative="1" as="geometry">
            <mxPoint x="350" y="439" as="sourcePoint" />
            <mxPoint x="330" y="439" as="targetPoint" />
          </mxGeometry>
        </mxCell>
        <mxCell id="SqXw7bOEsqwqvFWr4ap--8" value="" style="endArrow=none;html=1;rounded=0;" edge="1" parent="1">
          <mxGeometry width="50" height="50" relative="1" as="geometry">
            <mxPoint x="350" y="239.52" as="sourcePoint" />
            <mxPoint x="330" y="239.52" as="targetPoint" />
          </mxGeometry>
        </mxCell>
        <mxCell id="SqXw7bOEsqwqvFWr4ap--9" value="&lt;div&gt;20&lt;/div&gt;" style="endArrow=none;html=1;rounded=0;" edge="1" parent="1">
          <mxGeometry width="50" height="50" relative="1" as="geometry">
            <mxPoint x="350" y="240" as="sourcePoint" />
            <mxPoint x="350" y="440" as="targetPoint" />
          </mxGeometry>
        </mxCell>
        <mxCell id="SqXw7bOEsqwqvFWr4ap--10" value="" style="endArrow=none;html=1;rounded=0;" edge="1" parent="1">
          <mxGeometry width="50" height="50" relative="1" as="geometry">
            <mxPoint x="235" y="400" as="sourcePoint" />
            <mxPoint x="210" y="400" as="targetPoint" />
          </mxGeometry>
        </mxCell>
        <mxCell id="SqXw7bOEsqwqvFWr4ap--11" value="8" style="endArrow=none;html=1;rounded=0;" edge="1" parent="1">
          <mxGeometry width="50" height="50" relative="1" as="geometry">
            <mxPoint x="210" y="320" as="sourcePoint" />
            <mxPoint x="210" y="400" as="targetPoint" />
          </mxGeometry>
        </mxCell>
        <mxCell id="SqXw7bOEsqwqvFWr4ap--12" value="9" style="endArrow=none;html=1;rounded=0;" edge="1" parent="1">
          <mxGeometry width="50" height="50" relative="1" as="geometry">
            <mxPoint x="160" y="470" as="sourcePoint" />
            <mxPoint x="280" y="470" as="targetPoint" />
          </mxGeometry>
        </mxCell>
        <mxCell id="SqXw7bOEsqwqvFWr4ap--13" value="" style="endArrow=none;html=1;rounded=0;" edge="1" parent="1">
          <mxGeometry width="50" height="50" relative="1" as="geometry">
            <mxPoint x="279.6" y="470" as="sourcePoint" />
            <mxPoint x="279.6" y="450" as="targetPoint" />
          </mxGeometry>
        </mxCell>
        <mxCell id="SqXw7bOEsqwqvFWr4ap--15" value="Толщина стен равна 1.2м, все еденицы указанны в метрах" style="shape=note;whiteSpace=wrap;html=1;backgroundOutline=1;darkOpacity=0.05;align=left;spacing=2;spacingTop=5;" vertex="1" parent="1">
          <mxGeometry x="555" y="30" width="115" height="90" as="geometry" />
        </mxCell>
        <mxCell id="SqXw7bOEsqwqvFWr4ap--16" value="&amp;nbsp;" style="text;whiteSpace=wrap;html=1;" vertex="1" parent="1">
          <mxGeometry x="50" y="400" width="40" height="40" as="geometry" />
        </mxCell>
        <mxCell id="SqXw7bOEsqwqvFWr4ap--17" value="&amp;nbsp;" style="text;whiteSpace=wrap;html=1;" vertex="1" parent="1">
          <mxGeometry x="130" y="250" width="40" height="40" as="geometry" />
        </mxCell>
        <mxCell id="SqXw7bOEsqwqvFWr4ap--19" value="&amp;nbsp;" style="text;whiteSpace=wrap;html=1;" vertex="1" parent="1">
          <mxGeometry x="150" y="670" width="40" height="40" as="geometry" />
        </mxCell>
        <mxCell id="SqXw7bOEsqwqvFWr4ap--21" value="" style="endArrow=none;html=1;rounded=0;" edge="1" parent="1">
          <mxGeometry width="50" height="50" relative="1" as="geometry">
            <mxPoint x="129.88" y="709.6" as="sourcePoint" />
            <mxPoint x="129.88" y="689.6" as="targetPoint" />
          </mxGeometry>
        </mxCell>
        <mxCell id="SqXw7bOEsqwqvFWr4ap--22" value="12" style="endArrow=none;html=1;rounded=0;" edge="1" parent="1">
          <mxGeometry width="50" height="50" relative="1" as="geometry">
            <mxPoint x="129.88" y="709.6" as="sourcePoint" />
            <mxPoint x="240" y="710" as="targetPoint" />
          </mxGeometry>
        </mxCell>
        <mxCell id="SqXw7bOEsqwqvFWr4ap--23" value="" style="endArrow=none;html=1;rounded=0;" edge="1" parent="1">
          <mxGeometry width="50" height="50" relative="1" as="geometry">
            <mxPoint x="240.00000000000003" y="710" as="sourcePoint" />
            <mxPoint x="240.00000000000003" y="690" as="targetPoint" />
          </mxGeometry>
        </mxCell>
        <mxCell id="SqXw7bOEsqwqvFWr4ap--24" value="" style="endArrow=none;html=1;rounded=0;" edge="1" parent="1">
          <mxGeometry width="50" height="50" relative="1" as="geometry">
            <mxPoint x="280" y="560" as="sourcePoint" />
            <mxPoint x="250.00000000000003" y="560" as="targetPoint" />
          </mxGeometry>
        </mxCell>
        <mxCell id="SqXw7bOEsqwqvFWr4ap--25" value="" style="endArrow=none;html=1;rounded=0;" edge="1" parent="1">
          <mxGeometry width="50" height="50" relative="1" as="geometry">
            <mxPoint x="280" y="680" as="sourcePoint" />
            <mxPoint x="250" y="679.6" as="targetPoint" />
          </mxGeometry>
        </mxCell>
        <mxCell id="SqXw7bOEsqwqvFWr4ap--26" value="15" style="endArrow=none;html=1;rounded=0;" edge="1" parent="1">
          <mxGeometry width="50" height="50" relative="1" as="geometry">
            <mxPoint x="280" y="560" as="sourcePoint" />
            <mxPoint x="280" y="680" as="targetPoint" />
          </mxGeometry>
        </mxCell>
        <mxCell id="SqXw7bOEsqwqvFWr4ap--27" value="" style="endArrow=none;html=1;rounded=0;" edge="1" parent="1">
          <mxGeometry width="50" height="50" relative="1" as="geometry">
            <mxPoint x="90" y="535" as="sourcePoint" />
            <mxPoint x="90.26" y="550.4" as="targetPoint" />
          </mxGeometry>
        </mxCell>
        <mxCell id="SqXw7bOEsqwqvFWr4ap--28" value="9" style="endArrow=none;html=1;rounded=0;" edge="1" parent="1">
          <mxGeometry width="50" height="50" relative="1" as="geometry">
            <mxPoint x="90" y="535" as="sourcePoint" />
            <mxPoint x="130" y="535" as="targetPoint" />
          </mxGeometry>
        </mxCell>
        <mxCell id="SqXw7bOEsqwqvFWr4ap--29" value="" style="endArrow=none;html=1;rounded=0;" edge="1" parent="1">
          <mxGeometry width="50" height="50" relative="1" as="geometry">
            <mxPoint x="130.00000000000003" y="535" as="sourcePoint" />
            <mxPoint x="130.4" y="550" as="targetPoint" />
          </mxGeometry>
        </mxCell>
        <mxCell id="SqXw7bOEsqwqvFWr4ap--30" value="" style="endArrow=none;html=1;rounded=0;" edge="1" parent="1">
          <mxGeometry width="50" height="50" relative="1" as="geometry">
            <mxPoint x="317.21" y="825" as="sourcePoint" />
            <mxPoint x="287.21" y="825" as="targetPoint" />
          </mxGeometry>
        </mxCell>
        <mxCell id="SqXw7bOEsqwqvFWr4ap--31" value="" style="endArrow=none;html=1;rounded=0;" edge="1" parent="1">
          <mxGeometry width="50" height="50" relative="1" as="geometry">
            <mxPoint x="317.21" y="965" as="sourcePoint" />
            <mxPoint x="287.21" y="964.6" as="targetPoint" />
          </mxGeometry>
        </mxCell>
        <mxCell id="SqXw7bOEsqwqvFWr4ap--32" value="19" style="endArrow=none;html=1;rounded=0;" edge="1" parent="1">
          <mxGeometry width="50" height="50" relative="1" as="geometry">
            <mxPoint x="317.21" y="825" as="sourcePoint" />
            <mxPoint x="317.21" y="965" as="targetPoint" />
          </mxGeometry>
        </mxCell>
        <mxCell id="SqXw7bOEsqwqvFWr4ap--34" value="" style="endArrow=none;html=1;rounded=0;" edge="1" parent="1">
          <mxGeometry width="50" height="50" relative="1" as="geometry">
            <mxPoint x="52.21" y="799.6" as="sourcePoint" />
            <mxPoint x="52.470000000000006" y="815" as="targetPoint" />
          </mxGeometry>
        </mxCell>
        <mxCell id="SqXw7bOEsqwqvFWr4ap--35" value="22" style="endArrow=none;html=1;rounded=0;" edge="1" parent="1">
          <mxGeometry width="50" height="50" relative="1" as="geometry">
            <mxPoint x="52.21" y="799.6" as="sourcePoint" />
            <mxPoint x="270" y="800" as="targetPoint" />
          </mxGeometry>
        </mxCell>
        <mxCell id="SqXw7bOEsqwqvFWr4ap--36" value="" style="endArrow=none;html=1;rounded=0;" edge="1" parent="1">
          <mxGeometry width="50" height="50" relative="1" as="geometry">
            <mxPoint x="269.76000000000005" y="800" as="sourcePoint" />
            <mxPoint x="270.16" y="815" as="targetPoint" />
          </mxGeometry>
        </mxCell>
        <mxCell id="SqXw7bOEsqwqvFWr4ap--37" value="" style="endArrow=none;html=1;rounded=0;" edge="1" parent="1">
          <mxGeometry width="50" height="50" relative="1" as="geometry">
            <mxPoint x="49.99999999999999" y="890" as="sourcePoint" />
            <mxPoint x="50" y="875" as="targetPoint" />
          </mxGeometry>
        </mxCell>
        <mxCell id="SqXw7bOEsqwqvFWr4ap--38" value="5" style="endArrow=none;html=1;rounded=0;" edge="1" parent="1">
          <mxGeometry width="50" height="50" relative="1" as="geometry">
            <mxPoint x="50" y="890" as="sourcePoint" />
            <mxPoint x="87.03" y="890.16" as="targetPoint" />
          </mxGeometry>
        </mxCell>
        <mxCell id="SqXw7bOEsqwqvFWr4ap--39" value="" style="endArrow=none;html=1;rounded=0;" edge="1" parent="1">
          <mxGeometry width="50" height="50" relative="1" as="geometry">
            <mxPoint x="87.03000000000003" y="890.16" as="sourcePoint" />
            <mxPoint x="87" y="875" as="targetPoint" />
          </mxGeometry>
        </mxCell>
        <mxCell id="SqXw7bOEsqwqvFWr4ap--40" value="" style="endArrow=none;html=1;rounded=0;" edge="1" parent="1">
          <mxGeometry width="50" height="50" relative="1" as="geometry">
            <mxPoint x="92.52" y="940" as="sourcePoint" />
            <mxPoint x="92.52000000000001" y="925" as="targetPoint" />
          </mxGeometry>
        </mxCell>
        <mxCell id="SqXw7bOEsqwqvFWr4ap--41" value="7" style="endArrow=none;html=1;rounded=0;" edge="1" parent="1">
          <mxGeometry width="50" height="50" relative="1" as="geometry">
            <mxPoint x="92.52000000000001" y="940" as="sourcePoint" />
            <mxPoint x="150" y="940" as="targetPoint" />
          </mxGeometry>
        </mxCell>
        <mxCell id="SqXw7bOEsqwqvFWr4ap--42" value="" style="endArrow=none;html=1;rounded=0;" edge="1" parent="1">
          <mxGeometry width="50" height="50" relative="1" as="geometry">
            <mxPoint x="149.55000000000004" y="940.16" as="sourcePoint" />
            <mxPoint x="149.52" y="925" as="targetPoint" />
          </mxGeometry>
        </mxCell>
        <mxCell id="SqXw7bOEsqwqvFWr4ap--43" value="" style="rounded=0;whiteSpace=wrap;html=1;fillColor=#ffe6cc;strokeColor=#d79b00;" vertex="1" parent="1">
          <mxGeometry x="335" y="680" width="10" height="20" as="geometry" />
        </mxCell>
        <mxCell id="SqXw7bOEsqwqvFWr4ap--44" value="" style="endArrow=classic;html=1;rounded=0;exitX=1;exitY=0.5;exitDx=0;exitDy=0;entryX=0;entryY=0.5;entryDx=0;entryDy=0;" edge="1" parent="1">
          <mxGeometry width="50" height="50" relative="1" as="geometry">
            <mxPoint x="345" y="689.8" as="sourcePoint" />
            <mxPoint x="365" y="689.8" as="targetPoint" />
          </mxGeometry>
        </mxCell>
        <mxCell id="SqXw7bOEsqwqvFWr4ap--45" value="&lt;div&gt;Окно&lt;/div&gt;" style="text;html=1;align=center;verticalAlign=middle;whiteSpace=wrap;rounded=0;strokeColor=default;" vertex="1" parent="1">
          <mxGeometry x="365" y="675" width="60" height="30" as="geometry" />
        </mxCell>
        <mxCell id="SqXw7bOEsqwqvFWr4ap--46" value="Этажы должны быть расположены друг на другом" style="shape=note;whiteSpace=wrap;html=1;backgroundOutline=1;darkOpacity=0.05;align=left;spacing=2;spacingTop=5;" vertex="1" parent="1">
          <mxGeometry x="347.5" y="10" width="95" height="110" as="geometry" />
        </mxCell>
        <mxCell id="SqXw7bOEsqwqvFWr4ap--47" value="&lt;font&gt;Размер 1 ступеньки (минимальный x, константный y, константный z): 0.9, 0.2, 0.2&lt;/font&gt;" style="shape=note;whiteSpace=wrap;html=1;backgroundOutline=1;darkOpacity=0.05;align=left;fontSize=11;" vertex="1" parent="1">
          <mxGeometry x="450" y="20" width="90" height="100" as="geometry" />
        </mxCell>
        <mxCell id="SqXw7bOEsqwqvFWr4ap--48" value="&amp;nbsp;" style="text;whiteSpace=wrap;html=1;" vertex="1" parent="1">
          <mxGeometry x="610" y="420" width="40" height="40" as="geometry" />
        </mxCell>
        <mxCell id="SqXw7bOEsqwqvFWr4ap--49" value="" style="endArrow=none;html=1;rounded=0;" edge="1" parent="1">
          <mxGeometry width="50" height="50" relative="1" as="geometry">
            <mxPoint x="160" y="995" as="sourcePoint" />
            <mxPoint x="160" y="980" as="targetPoint" />
          </mxGeometry>
        </mxCell>
        <mxCell id="SqXw7bOEsqwqvFWr4ap--50" value="9" style="endArrow=none;html=1;rounded=0;" edge="1" parent="1">
          <mxGeometry x="0.0036" width="50" height="50" relative="1" as="geometry">
            <mxPoint x="160" y="995" as="sourcePoint" />
            <mxPoint x="270" y="995" as="targetPoint" />
            <mxPoint as="offset" />
          </mxGeometry>
        </mxCell>
        <mxCell id="SqXw7bOEsqwqvFWr4ap--51" value="" style="endArrow=none;html=1;rounded=0;" edge="1" parent="1">
          <mxGeometry width="50" height="50" relative="1" as="geometry">
            <mxPoint x="269.83000000000004" y="995.16" as="sourcePoint" />
            <mxPoint x="269.8" y="980" as="targetPoint" />
          </mxGeometry>
        </mxCell>
        <mxCell id="SqXw7bOEsqwqvFWr4ap--52" value="" style="endArrow=none;html=1;rounded=0;" edge="1" parent="1">
          <mxGeometry width="50" height="50" relative="1" as="geometry">
            <mxPoint x="89.99999999999997" y="230" as="sourcePoint" />
            <mxPoint x="89.99999999999997" y="210" as="targetPoint" />
          </mxGeometry>
        </mxCell>
      </root>
    </mxGraphModel>
  </diagram>
</mxfile>
